<svg width="200" height="200" viewBox="0 0 200 200" fill="currentColor" xmlns="http://www.w3.org/2000/svg">
<path d="M170.711 29.2891C151.823 10.4016 126.711 0 100 0C73.2887 0 48.177 10.4016 29.2898 29.2891C10.4016 48.177 0 73.2891 0 100C0 126.711 10.4016 151.823 29.2898 170.711C48.177 189.598 73.2887 200 100 200C126.711 200 151.823 189.598 170.711 170.711C189.598 151.823 200 126.711 200 100C200 73.2891 189.598 48.177 170.711 29.2891ZM100 192.032C50.1867 192.032 9.49414 152.25 8.01406 102.789H19.1742C19.5672 114.605 22.457 125.92 27.7895 136.461C28.491 137.847 29.8926 138.647 31.3477 138.647C31.9527 138.647 32.5664 138.509 33.143 138.217C35.1066 137.223 35.8926 134.827 34.8996 132.863C29.7187 122.621 27.0918 111.564 27.0918 100C27.0918 71.9777 42.7258 46.8883 67.893 34.5227C69.8676 33.5523 70.6816 31.1648 69.7117 29.1898C68.7406 27.2148 66.3539 26.4012 64.3785 27.3711C51.0082 33.9402 39.709 44.0695 31.7016 56.6641C24.3988 68.1516 20.1539 81.2484 19.2906 94.8207H8.1168C10.8125 46.4746 50.9918 7.96797 100 7.96797C114.445 7.96797 128.122 11.3176 140.3 17.2738L134.595 26.8699C123.925 21.8219 112.149 19.1234 100 19.1234C97.8 19.1234 96.016 20.907 96.016 23.1074C96.016 25.3078 97.8 27.0914 100 27.0914C121.856 27.0914 142.373 36.7754 156.29 53.6598C157.078 54.6156 158.218 55.1102 159.367 55.1102C160.259 55.1102 161.156 54.8117 161.898 54.2004C163.596 52.8008 163.838 50.2898 162.439 48.5922C156.48 41.3633 149.427 35.3305 141.623 30.6398L147.304 21.0848C174.08 37.1961 192.032 66.5395 192.032 100C192.032 150.746 150.746 192.032 100 192.032Z" fill="currentColor"/>
<path d="M173.428 66.0551C172.841 64.7887 172.213 63.5191 171.56 62.2832C170.533 60.3375 168.122 59.5926 166.177 60.6203C164.231 61.6477 163.486 64.0578 164.514 66.0035C165.103 67.1176 165.669 68.2609 166.198 69.4027C166.871 70.8578 168.311 71.7141 169.816 71.7141C170.376 71.7141 170.945 71.5953 171.487 71.3445C173.483 70.4195 174.352 68.0516 173.428 66.0551Z" fill="currentColor"/>
<path d="M176.893 96.016C174.693 96.016 172.909 97.7996 172.909 100C172.909 101.091 172.88 102.176 172.832 103.255L161.724 101.901C161.743 101.268 161.753 100.635 161.753 100C161.753 77.3133 149.352 56.4977 129.389 45.6762C127.454 44.6277 125.036 45.3457 123.988 47.2801C122.939 49.2145 123.657 51.6328 125.591 52.6813C142.982 62.1078 153.785 80.2395 153.785 100C153.785 117.728 145.048 134.314 130.414 144.366C128.6 145.612 128.14 148.093 129.386 149.906C130.159 151.03 131.405 151.635 132.673 151.635C133.451 151.635 134.237 151.408 134.926 150.934C148.982 141.279 158.294 126.37 160.961 109.834L172.05 111.187C166.652 146.097 136.398 172.908 100 172.908C93.4238 172.908 86.9449 172.031 80.7078 170.325L84.4754 159.776C89.4375 161.065 94.6394 161.753 99.9996 161.753C102.2 161.753 103.984 159.97 103.984 157.769C103.984 155.569 102.2 153.785 99.9996 153.785C70.3426 153.785 46.2148 129.657 46.2148 100C46.2148 97.8 44.4309 96.0164 42.2309 96.0164C40.0309 96.0164 38.2469 97.8 38.2469 100C38.2469 125.891 54.2645 148.108 76.9094 157.271L73.148 167.803C68.5547 165.983 64.1367 163.691 59.9609 160.941C58.123 159.732 55.6531 160.24 54.4422 162.078C53.232 163.916 53.741 166.386 55.5793 167.597C68.775 176.285 84.1355 180.877 100 180.877C144.596 180.877 180.877 144.597 180.877 100.001C180.877 97.7996 179.093 96.016 176.893 96.016Z" fill="currentColor"/>
<path d="M138.247 96.016H124.38C122.47 84.2828 112.264 75.2988 100 75.2988C86.3797 75.2988 75.2988 86.3797 75.2988 100C75.2988 113.62 86.3797 124.701 100 124.701C102.2 124.701 103.984 122.918 103.984 120.717C103.984 118.517 102.2 116.733 100 116.733C90.7734 116.733 83.2668 109.227 83.2668 100C83.2668 90.7734 90.773 83.2668 100 83.2668C109.227 83.2668 116.733 90.773 116.733 100C116.733 102.2 118.517 103.984 120.717 103.984H134.033C132.054 121.007 117.546 134.263 100 134.263C81.107 134.263 65.7371 118.892 65.7371 100C65.7371 81.1078 81.107 65.7371 100 65.7371C102.2 65.7371 103.984 63.9535 103.984 61.7531C103.984 59.5527 102.2 57.7691 100 57.7691C93.293 57.7691 86.9477 59.3434 81.3102 62.1375L74.4988 52.7066C82.2203 48.5344 90.9648 46.2148 100 46.2148C102.2 46.2148 103.984 44.4312 103.984 42.2309C103.984 40.0305 102.2 38.2469 100 38.2469C88.1645 38.2469 76.6637 41.6059 66.7402 47.9605C57.0824 54.1449 49.3461 62.8613 44.3668 73.1668C43.409 75.1481 44.2395 77.5301 46.2207 78.4871C46.7793 78.7574 47.3695 78.8852 47.9516 78.8852C49.432 78.8852 50.8543 78.0559 51.5418 76.6332C55.3434 68.7648 60.9797 62.0883 67.7773 57.0078L74.5207 66.3449C64.35 74.0637 57.7691 86.277 57.7691 100C57.7691 123.286 76.7141 142.231 100 142.231C123.287 142.231 142.231 123.286 142.231 100C142.231 97.7996 140.447 96.016 138.247 96.016Z" fill="currentColor"/>
<path d="M108 100C108 104.418 104.418 108 100 108C95.5817 108 92 104.418 92 100C92 95.5817 95.5817 92 100 92C104.418 92 108 95.5817 108 100Z" fill="currentColor"/>
</svg>
